HIERARCHY
ROOT Hips
{
     OFFSET 1.88212 96.90440 -13.34250
     CHANNELS 6 Xposition Yposition Zposition Zrotation Xrotation Yrotation
     JOINT Spine
     {
          OFFSET 0.00000 11.89050 0.00000
          CHANNELS 3 Zrotation Xrotation Yrotation
          JOINT Spine1
          {
               OFFSET -0.00000 25.65740 0.12766
               CHANNELS 3 Zrotation Xrotation Yrotation
               JOINT HEad
               {
                    OFFSET 0.00000 8.73416 0.01134
                    CHANNELS 3 Zrotation Xrotation Yrotation
                    End Site
                    {
                         OFFSET -0.29000 12.77420 2.51395
                    }
               }
               JOINT LeftShoulder1
               {
                    OFFSET 8.99000 -0.36225 -0.22000
                    CHANNELS 3 Zrotation Xrotation Yrotation
                    JOINT LeftArm
                    {
                         OFFSET 10.28270 -0.00338 0.32212
                         CHANNELS 3 Zrotation Xrotation Yrotation
                         JOINT LeftForeArm
                         {
                              OFFSET 32.76690 0.09914 -1.42434
                              CHANNELS 3 Zrotation Xrotation Yrotation
                              JOINT LeftHand
                              {
                                   OFFSET 27.56430 0.08536 1.02216
                                   CHANNELS 3 Zrotation Xrotation Yrotation
                                   End Site
                                   {
                                        OFFSET 16.74430 -0.60000 1.50291
                                   }
                              }
                         }
                    }
               }
               JOINT RightShoulder
               {
                    OFFSET -8.99000 -0.36225 -0.22000
                    CHANNELS 3 Zrotation Xrotation Yrotation
                    JOINT RightArm
                    {
                         OFFSET -10.28270 -0.00338 0.32212
                         CHANNELS 3 Zrotation Xrotation Yrotation
                         JOINT RightForeArm
                         {
                              OFFSET -32.89710 0.09914 -1.42434
                              CHANNELS 3 Zrotation Xrotation Yrotation
                              JOINT RightHand
                              {
                                   OFFSET -27.49210 0.08536 1.02216
                                   CHANNELS 3 Zrotation Xrotation Yrotation
                                   End Site
                                   {
                                        OFFSET -16.63120 -0.60000 1.50291
                                   }
                              }
                         }
                    }
               }
          }
     }
     JOINT LeftUpLeg
     {
          OFFSET 8.94580 -8.66707 0.10165
          CHANNELS 3 Zrotation Xrotation Yrotation
          JOINT LeftLeg
          {
               OFFSET 0.00000 -44.42270 1.37270
               CHANNELS 3 Zrotation Xrotation Yrotation
               JOINT LeftFoot
               {
                    OFFSET -0.25355 -42.09240 -1.46059
                    CHANNELS 3 Zrotation Xrotation Yrotation
                    JOINT LeftToes
                    {
                         OFFSET -0.04000 -4.41509 8.49910
                         CHANNELS 3 Zrotation Xrotation Yrotation
                         End Site
                         {
                              OFFSET 0.08000 -0.04745 9.77979
                         }
                    }
               }
          }
     }
     JOINT RightUpLeg
     {
          OFFSET -8.94580 -8.66707 0.10165
          CHANNELS 3 Zrotation Xrotation Yrotation
          JOINT RightLeg
          {
               OFFSET 0.00000 -44.42270 1.37270
               CHANNELS 3 Zrotation Xrotation Yrotation
               JOINT RightFoot
               {
                    OFFSET 0.25355 -42.09240 -1.46059
                    CHANNELS 3 Zrotation Xrotation Yrotation
                    JOINT RightToes
                    {
                         OFFSET 0.04000 -4.41509 8.49910
                         CHANNELS 3 Zrotation Xrotation Yrotation
                         End Site
                         {
                              OFFSET -0.08000 -0.13745 9.77979
                         }
                    }
               }
          }
     }
}
MOTION
Frames: 17
Frame Time: 0.01667
49.54926 97.53151 -0.16137 1.80852 17.16444 140.68491 -17.60902 24.94836 -4.46569 0.01499 -0.00439 -0.00347 1.63146 -2.48456 27.26097 -1.17085 12.65074 1.60823 -163.19443 -30.23492 -142.96217 -104.54119 71.93000 -16.56113 23.11092 7.85503 -12.73477 7.40194 13.19248 -2.09388 71.01688 7.74668 88.83057 -10.85347 20.65744 103.51791 25.88285 6.51951 10.38869 -1.21998 8.99744 -21.64840 -13.95905 -0.16305 94.27277 -5.96918 0.10913 -0.02950 9.99731 37.73960 -0.58510 -20.29389 3.94463 7.83422 22.35245 6.69090 -26.21957 -37.80796 -0.04153 0.00515 20.53866 -19.11933 16.51668 
49.57375 98.07754 0.59708 -1.74863 25.04400 140.19835 -26.65012 28.18465 -1.45130 0.00866 0.00243 -0.00148 -3.18559 -2.37270 24.37980 -1.57494 11.95291 2.13882 -155.87393 -36.17986 -139.18219 -75.06689 69.81140 -42.98952 21.57860 7.94350 -14.64982 6.45322 12.58475 -1.21622 65.53711 10.70778 90.16248 -11.94624 16.99499 102.51460 12.34561 9.45829 0.54349 -7.56038 8.12253 -17.07086 -19.62700 7.25811 95.16367 -9.67772 0.09121 -0.04811 11.57914 33.64697 -5.31685 -27.96916 6.44450 11.32108 19.69699 8.00229 -26.52811 -30.57821 0.01717 0.00535 15.96995 -19.01358 16.59679 
49.59673 98.51191 1.38767 -4.85222 31.83310 140.13332 -34.33928 30.12820 1.53462 0.00282 0.00752 -0.00014 -9.05440 -0.94219 20.78771 -1.87168 11.75534 2.71533 -145.70992 -42.64293 -133.05322 -49.89375 62.49387 -61.26479 20.08484 6.09025 -19.33414 5.64984 12.43425 -0.34841 61.99584 12.62962 90.83550 -12.56586 14.85340 101.70615 32.70154 2.49286 20.34554 -12.26628 5.84496 -11.75253 -26.28798 15.94728 92.24117 -13.92956 0.03399 -0.18504 10.19220 30.57825 -3.42134 -34.66884 8.14096 14.70603 18.32904 8.81606 -27.03608 -24.50859 0.02015 -0.00143 11.25558 -18.84126 16.60014 
49.64613 98.92236 2.16684 -7.54601 37.62846 140.29942 -40.49677 31.09620 4.24702 -0.00160 0.01273 0.00197 -14.63815 1.07582 17.71763 -2.15415 11.92386 3.44340 -132.18578 -48.56778 -123.57012 -33.41173 51.46823 -68.86382 19.11086 12.46251 -8.75753 4.80246 12.60262 0.62788 59.90042 14.05157 91.12418 -12.82252 13.78293 100.54659 19.82357 -1.67665 15.91534 -15.19198 2.37165 -5.84250 -32.46369 26.06532 86.78973 -19.98686 -0.15014 -0.26234 -1.15666 21.98794 -8.72191 -40.68108 9.28449 17.94729 19.64560 8.64670 -28.71996 -21.08950 0.02909 0.01806 6.92920 -19.15074 17.33296 
49.76876 99.35133 2.96198 -9.80099 42.54551 140.52252 -45.05596 31.38929 6.55215 0.00003 0.01604 0.00322 -19.96481 3.47985 15.23025 -2.52836 12.36591 4.19894 -114.84866 -52.76875 -110.02057 -22.10145 37.91791 -70.01111 14.90902 0.38850 -28.28223 3.90620 13.00684 1.59753 60.58007 18.94896 91.60302 -16.32657 15.79951 99.03739 28.03480 3.24963 17.17914 -16.27737 -2.02900 0.61214 -36.45980 36.93256 79.26741 -29.68993 -0.47775 -0.36848 6.63668 19.91244 3.51838 -46.23092 10.05458 21.04840 22.62931 7.77382 -31.17540 -19.35423 0.02600 0.01510 3.18074 -19.89394 18.61413 
49.99632 99.75027 3.81405 -11.57233 46.71181 140.66737 -48.13047 31.25985 8.42338 -0.00320 0.01977 0.00394 -25.01105 6.08869 13.34091 -3.09319 13.00991 4.77146 -94.55882 -53.96986 -93.10954 -13.56886 22.53398 -67.15077 12.45095 10.90735 -10.12028 2.86530 13.59269 2.56054 61.24461 21.97341 91.43767 -13.03235 18.59758 97.26533 19.76090 5.31626 12.19938 -15.51947 -7.02817 7.61889 -36.13384 47.23245 70.07342 -46.18301 -0.96680 -0.38972 6.94193 5.49716 -0.36483 -51.22498 10.57693 23.97652 24.77896 7.10165 -33.13212 -16.76431 0.04091 0.01249 -0.39012 -20.50472 19.65136 
50.31991 99.97611 4.74318 -12.86060 50.26152 140.67166 -49.98324 30.88197 9.88166 -0.00919 0.02311 0.00269 -29.75250 8.76400 12.04986 -4.10344 13.82688 5.11707 -74.31083 -51.30379 -75.60933 -6.95973 5.75888 -61.60254 10.04799 2.63210 -28.45676 1.64377 14.37998 3.36317 61.85456 24.09924 90.85665 -10.97931 20.59660 95.79879 25.22370 10.27316 10.72028 -12.75148 -12.17885 15.22120 -33.23202 53.05420 62.02296 -31.10009 0.60056 -0.17084 -17.78284 -4.51604 1.02824 -55.53683 10.91551 26.67163 26.49803 6.59824 -34.72220 -13.77033 0.04283 0.01290 -3.96418 -21.03665 20.45174 
50.68746 99.98722 5.71162 -13.67796 53.28995 140.51543 -50.87691 30.38422 10.94370 -0.01631 0.02718 0.00134 -34.16757 11.38476 11.33417 -5.38009 14.80111 5.11368 -57.77654 -44.81538 -60.68458 -1.89435 -11.66100 -54.25307 0.36827 8.56989 -11.41641 0.19500 15.35498 4.05416 62.43562 25.70274 90.06190 -9.75496 22.08064 94.58133 20.51902 10.62240 8.74534 -7.75303 -17.02383 23.44659 -30.18947 56.11091 55.09532 -30.15806 0.04023 -0.08053 -20.92643 -10.17110 -0.83289 -59.07446 11.12139 29.07385 27.98844 6.26453 -36.05349 -10.62684 0.03947 0.01338 -7.63476 -21.58147 21.05328 
51.05797 99.74323 6.57440 -13.98900 55.84620 140.15292 -50.96376 29.85893 11.62536 -0.02099 0.03011 0.00125 -38.25114 13.86527 11.14328 -6.58062 15.83967 4.97419 -46.33460 -35.57062 -48.94180 1.35705 -26.92985 -51.60569 -2.10123 1.62885 -22.76245 -1.17063 16.41895 4.74280 62.82082 26.98094 88.95251 -9.17237 23.38973 93.64302 23.57742 12.71889 8.43049 -0.41140 -21.05279 32.15756 -25.35175 57.96304 47.29707 -30.03586 -0.04380 -0.02059 -12.71697 -16.10470 -2.28285 -61.83620 11.19603 31.15767 29.53600 6.11547 -36.93451 -15.56928 -0.02596 -0.01010 -3.55834 -22.03767 21.24171 
51.44804 99.29140 7.04999 -13.67554 57.94267 139.41914 -50.22836 29.32882 11.96305 -0.02029 0.03003 0.00303 -40.55724 16.09302 11.51474 -7.05495 16.57289 4.45598 -39.23693 -25.33474 -38.70714 1.39798 -40.54358 -53.22790 -2.66021 7.74144 -19.60795 -2.00899 17.16063 5.50666 62.97554 28.03364 87.35899 -8.90250 24.41310 92.87221 19.84064 12.91937 8.36927 9.04478 -23.57599 40.74304 -20.54024 57.99192 39.78378 -27.88536 0.03097 -0.18568 -5.22030 -17.48854 -2.88986 -63.87344 11.24468 32.94813 31.02625 6.17324 -37.67879 -20.37168 -0.01926 -0.03313 0.33707 -22.72365 21.33808 
51.88943 98.79351 6.98145 -8.81849 59.00189 134.94069 -47.16407 29.41593 12.73532 -0.02048 0.02441 0.00445 -41.33861 17.90564 12.13286 1.77995 9.68569 2.66886 -44.22000 -11.28035 -28.27454 0.55938 -49.24610 -55.19253 -2.44217 4.28484 -25.60744 5.96588 11.53602 8.85706 60.42315 28.14103 76.27073 -8.56066 25.19585 92.02538 20.96941 14.45764 9.10452 21.36147 -23.57779 47.86160 -17.79830 55.84805 33.63487 -26.19316 0.03689 -0.19556 -6.22858 -16.97166 -8.71509 -63.61864 11.81587 35.29417 32.46393 6.38918 -38.08183 -20.59948 -0.00317 0.00339 -0.44432 -23.55443 21.06594 
52.38614 98.36806 6.25912 -0.36245 58.72889 127.13688 -40.73268 30.10509 13.59336 0.08382 0.01466 0.03636 -42.10977 19.60436 12.50077 8.36353 3.17875 3.03509 -51.04063 -4.00157 -20.15330 -3.63983 -50.79886 -57.68866 17.86361 12.40748 -22.70008 13.38090 6.42842 11.27852 59.95136 29.63380 68.22672 -7.46508 26.32925 92.06397 7.99732 14.16285 23.17827 35.30332 -21.89689 52.70446 -17.63332 52.25633 29.42259 -24.60082 0.06209 -0.20041 -5.75753 -17.53764 -10.46868 -61.63623 12.77578 38.20081 33.65103 6.93047 -38.24025 -20.46768 0.00090 0.00078 -1.29612 -24.65730 20.71690 
52.93076 98.04530 4.83006 6.94858 57.98979 120.29812 -32.84460 30.70329 13.44264 0.08421 -0.00281 0.03540 -42.75202 21.20287 12.76722 4.11995 4.77248 2.09442 -49.33050 -8.42570 -17.98693 -4.48398 -50.84658 -59.52932 6.16585 11.47191 -19.92723 10.60163 7.93647 10.51948 63.54349 30.54259 71.57049 -6.05449 27.71622 92.60921 24.44774 11.56641 1.52680 48.35206 -20.31707 55.26970 -18.92656 48.08743 26.46529 -24.38400 0.01140 -0.06442 -5.46681 -15.51042 -14.93077 -60.20193 13.93307 40.78033 34.52692 7.72581 -38.06520 -19.87593 0.00082 0.00593 -2.16270 -26.10285 20.24996 
53.52980 97.66885 3.17628 13.12376 56.97761 114.44044 -25.25593 31.13907 12.77523 -0.02359 0.02264 0.00519 -41.94016 22.19810 12.89379 0.19162 6.39230 1.45226 -48.42118 -15.85841 -15.97725 -6.37725 -45.90736 -60.18083 7.21476 12.46846 -18.00986 7.85991 9.40376 9.92217 65.87471 31.23491 72.79741 -5.08501 28.87237 92.53520 17.76159 11.51571 8.51238 60.35233 -19.25820 55.82772 -20.96335 43.88344 24.07080 -24.99659 -0.04159 0.02167 -6.73639 -14.56709 -17.47026 -59.26125 15.15106 43.08987 35.11931 8.70747 -37.64328 -18.95464 0.00091 0.01167 -3.07145 -27.66299 19.71650 
54.15327 97.11890 1.53398 18.24554 55.79442 109.54603 -18.13816 31.31538 11.68686 -0.03501 0.02705 0.00017 -39.81438 22.76450 12.81585 -3.77247 8.27961 1.08706 -48.32178 -20.73825 -14.47563 -7.31683 -42.05247 -60.36065 1.42143 11.45056 -17.19477 4.67674 11.10189 9.28824 67.48079 31.87233 73.01727 -4.45080 29.92661 92.03943 25.84413 9.36155 -1.63159 71.00310 -18.87487 54.64838 -23.44603 39.78030 21.75767 -22.54124 0.19336 -0.19678 -4.80271 -4.48591 -3.66892 -58.56102 16.26336 45.07028 35.55142 9.80898 -37.15910 -17.94952 0.00113 0.01395 -4.00232 -29.27943 19.17112 
54.73598 96.39965 -0.00921 22.38976 54.49874 105.60941 -11.67797 31.12638 10.27737 -0.04099 0.02997 -0.00215 -36.18828 23.00126 12.40950 -7.65658 10.41719 1.12070 -48.72202 -23.81126 -13.31030 -7.73917 -39.23027 -60.40498 2.41838 11.94466 -16.41041 1.18230 13.02969 8.66541 68.63339 32.48862 72.80833 -3.91618 30.62012 91.64832 20.97005 9.90533 3.52635 79.92306 -19.05384 51.95810 -28.65936 38.26767 24.03403 -21.64603 0.11600 0.01288 -3.69451 -0.41677 0.24425 -57.89767 17.17838 46.63374 35.97670 10.95214 -36.74733 -17.05503 0.00110 0.01250 -4.96355 -30.81537 18.62594 
55.21495 95.63831 -1.52746 25.61182 53.16669 102.62508 -6.07917 30.51392 8.68338 -0.04366 0.03324 -0.00219 -32.77670 23.36289 12.20267 -11.13883 12.60943 1.54182 -49.53775 -25.53372 -12.38356 -7.85455 -37.23279 -60.48373 -0.61517 11.15323 -16.72371 -2.11392 15.05424 8.29919 69.33110 32.95295 72.22836 -3.46757 31.05730 91.31242 25.23524 8.91226 -1.51707 86.73374 -19.65592 47.90748 -36.65035 39.97644 30.83320 -9.74258 0.27356 0.13096 -3.94943 12.68965 9.87969 -57.23915 17.86660 47.73564 36.47305 12.08750 -36.44319 -16.30954 0.00077 0.00964 -5.89711 -32.23471 18.09769 
